<?xml version="1.0" encoding="utf-8"?>
<!-- Generator: Adobe Illustrator 25.0.1, SVG Export Plug-In . SVG Version: 6.00 Build 0)  -->
<svg version="1.1" id="Layer_1" xmlns="http://www.w3.org/2000/svg" xmlns:xlink="http://www.w3.org/1999/xlink" x="0px" y="0px"
	 viewBox="0 0 264 280" style="enable-background:new 0 0 264 280;" xml:space="preserve">
<style type="text/css">
	.st0{fill:#4E92F5;}
	.st1{fill:#F9C403;}
	.st2{fill:#3CB15F;}
	.st3{fill:#EB503E;}
	.st4{fill:#1D74D5;}
	.st5{fill:#1C8B41;}
	.st6{fill:#9A9EA0;}
	.st7{fill:#595959;}
</style>
<g>
	<g>
		<path class="st0" d="M217.66,242.93c-5.09,4.44-11.31,4.7-17.57,4.7c-46.87,0.01-93.73,0-140.6,0c-7.09,0-13.83-1.03-19.31-6.08
			c1.65-0.67,4.14-0.86,4.82-2.07c12.18-21.77,26.39-42.42,36.54-65.32c0.71-0.28,1.42-0.55,2.13-0.83
			c31.13,0.07,62.25,0.13,93.38,0.2c0.58,0.27,1.16,0.54,1.74,0.8C190.5,197.9,204.46,220.2,217.66,242.93z"/>
		<path class="st1" d="M178.78,174.34c-0.58-0.27-1.16-0.53-1.75-0.8c-15.56-26.78-31.11-53.56-46.66-80.33
			c0.11-1.15,0.22-2.3,0.34-3.45c13.23-22.23,26.45-44.47,39.68-66.7c5.56,2.03,8.41,6.68,11.17,11.46
			c23.65,41,47.37,81.96,70.95,123c2.85,4.96,6.39,9.92,4.88,16.27C231.19,173.76,204.98,172.69,178.78,174.34z"/>
		<path class="st2" d="M130.71,89.75c-0.11,1.15-0.22,2.3-0.34,3.45c-15.57,26.71-31.14,53.42-46.71,80.13
			c-0.71,0.28-1.42,0.55-2.12,0.83c-26.01-0.13-52.03-0.26-78.04-0.39c-1.68-6.35,1.75-11.35,4.62-16.34
			c23.62-41.02,47.35-81.97,71.05-122.95c2.75-4.75,5.51-9.5,11.2-11.36C103.95,45.26,115.45,68.64,130.71,89.75z"/>
		<path class="st3" d="M178.78,174.34c26.19-1.65,52.41-0.58,78.61-0.55c-0.12,12.63-28.88,62.67-39.75,69.15
			C204.46,220.2,190.5,197.9,178.78,174.34z"/>
		<path class="st4" d="M3.5,173.77c26.02,0.13,52.03,0.26,78.04,0.39c-10.16,22.91-24.37,43.56-36.55,65.33
			c-0.68,1.21-3.17,1.4-4.82,2.07c-13.48-13.27-19.68-31.18-29.58-46.74C6.61,188.55,1.34,182.29,3.5,173.77z"/>
		<path class="st5" d="M130.71,89.75c-15.26-21.1-26.76-44.49-40.33-66.62c26.67-6.53,53.34-6.39,80.02-0.08
			C157.17,45.28,143.94,67.51,130.71,89.75z"/>
	</g>
	<g>
		<path class="st6" d="M218.31,141.18c-18.02,0.02-32.63,14.63-32.65,32.65v20.09c0,1.39,1.12,2.51,2.51,2.51h10.05
			c1.39,0,2.51-1.12,2.51-2.51v-20.09c0-9.71,7.87-17.58,17.58-17.58s17.58,7.87,17.58,17.58v3.88c0,1.39,1.12,2.51,2.51,2.51h10.05
			c1.39,0,2.51-1.12,2.51-2.51v-3.88C250.93,155.81,236.33,141.2,218.31,141.18z"/>
		<path class="st7" d="M188.17,191.41h60.27c6.94,0,12.56,5.62,12.56,12.56v45.21c0,6.94-5.62,12.56-12.56,12.56h-60.27
			c-6.94,0-12.56-5.62-12.56-12.56v-45.21C175.61,197.03,181.23,191.41,188.17,191.41z"/>
		<path class="st6" d="M230.86,219.03c0.03-6.93-5.57-12.58-12.5-12.61c-6.93-0.03-12.58,5.57-12.61,12.5
			c-0.02,4.79,2.69,9.18,6.99,11.31l-1.94,13.56c-0.19,1.37,0.76,2.64,2.14,2.84c0.12,0.02,0.23,0.02,0.35,0.02h10.05
			c1.39,0.01,2.52-1.1,2.54-2.49c0-0.13-0.01-0.25-0.02-0.38l-1.94-13.56C228.15,228.11,230.84,223.78,230.86,219.03z"/>
		<path d="M198.22,196.43h-10.05c-1.39,0-2.51-1.12-2.51-2.51v-20.09c0-18.03,14.62-32.65,32.65-32.65s32.65,14.62,32.65,32.65v3.88
			c0,1.39-1.12,2.51-2.51,2.51H238.4c-1.39,0-2.51-1.12-2.51-2.51v-3.88c0-9.71-7.87-17.58-17.58-17.58s-17.58,7.87-17.58,17.58
			v20.09C200.73,195.31,199.6,196.43,198.22,196.43z M190.68,191.41h5.02v-17.58c0-12.48,10.12-22.6,22.6-22.6
			c12.48,0,22.6,10.12,22.6,22.6v1.37h5.02v-1.37c0-15.26-12.37-27.63-27.63-27.63s-27.63,12.37-27.63,27.63V191.41z"/>
		<path d="M248.44,261.73h-60.27c-6.94,0-12.56-5.62-12.56-12.56v-45.21c0-6.94,5.62-12.56,12.56-12.56h60.27
			c6.94,0,12.56,5.62,12.56,12.56v45.21C261,256.11,255.38,261.73,248.44,261.73z M188.17,196.43c-4.16,0-7.53,3.37-7.53,7.53v45.21
			c0,4.16,3.37,7.53,7.53,7.53h60.27c4.16,0,7.53-3.37,7.53-7.53v-45.21c0-4.16-3.37-7.53-7.53-7.53H188.17z"/>
		<path d="M223.33,246.66h-10.05c-1.39,0.01-2.52-1.1-2.54-2.49c0-0.13,0.01-0.25,0.02-0.38l1.94-13.56
			c-6.21-3.08-8.76-10.61-5.68-16.83s10.61-8.76,16.83-5.68c6.21,3.08,8.76,10.61,5.68,16.83c-1.22,2.46-3.22,4.46-5.68,5.68
			l1.94,13.56c0.19,1.37-0.76,2.64-2.13,2.84C223.55,246.65,223.44,246.66,223.33,246.66z M216.18,241.64h4.25l-1.81-12.65
			c-0.18-1.23,0.58-2.41,1.78-2.76c3.22-0.91,5.44-3.84,5.43-7.19c0-4.16-3.37-7.53-7.53-7.53c-4.16,0-7.53,3.37-7.53,7.53
			c-0.01,3.34,2.22,6.28,5.43,7.19c1.2,0.35,1.95,1.53,1.78,2.76L216.18,241.64z"/>
	</g>
</g>
</svg>
